<?xml version="1.0" encoding="utf-8"?>
<!-- Generator: Adobe Illustrator 26.0.2, SVG Export Plug-In . SVG Version: 6.00 Build 0)  -->
<svg version="1.1" xmlns="http://www.w3.org/2000/svg" xmlns:xlink="http://www.w3.org/1999/xlink" x="0px" y="0px"
	 viewBox="0 0 904 318.35" style="enable-background:new 0 0 904 318.35;" xml:space="preserve">
<style type="text/css">
	.st0{fill:#FFFFFF;}
</style>
<g id="Layer_1">
	<path class="st0" d="M68.61,33.18C51.96,28.93,14.14,10.97,0,0c18.64,2.65,38.77,5.14,60.17,7.43c26.3,2.82,54.66,5.37,84.42,7.58
		v119.77l-11.26,3.24l11.26,8.41v107.79c-8.52,2.13-16.86,4.37-24.94,6.69v-119.1l-9.98,2.55c-2.38,0.61-4.75,1.22-7.11,1.84
		l-5.97,1.57V268c-13.87,4.55-26.86,9.38-38.69,14.4c-21.38,9.06-39.29,18.79-53.55,29.08c14.39-36.24,64.68-65.51,64.68-65.51
		S68.61,51.91,68.61,33.18z M96.76,48.92l-0.2,63.32l9.05-1.17c2.34-0.3,4.68-0.6,7.03-0.89l7-0.88V40.02c0,0-34.06-4.91-37.11-5.3
		L96.76,48.92z"/>
	<path class="st0" d="M489.78,67.68v153.55c-8.8-0.21-17.59-0.34-26.25-0.41V25.53c25.3-0.06,50.65-0.32,75.57-0.77v198.4
		c-8.63-0.47-17.42-0.88-26.25-1.22V55.36l-8.14,0.14c-2,0-19.73,0.27-28.53-0.19L489.78,67.68z"/>
	<path class="st0" d="M710.1,18.3v182.32l-0.01,10.7l-39.65-3.5l16.6-11.1V19.6c-8.74,0.46-17.52,0.9-26.25,1.3v186.64v4.84v22.74
		c26.45,3.85,51.79,8.44,75.57,13.69V16.65C727.79,17.22,719.01,17.77,710.1,18.3z"/>
	<path class="st0" d="M295.22,179.45V23c-8.96-0.3-18.18-0.65-28.94-1.1v189.28l39.92,16.4l35.65-24.67V24.29
		c-8.49-0.19-18.37-0.39-25.57-0.59v164.37l-10.9,9.9l-25.12-8.61L295.22,179.45z"/>
	<path class="st0" d="M784.88,52.78v56.59l8.27,1.05c1.93,0.24,3.85,0.49,5.77,0.73c6.03,0.78,12.2,1.6,18.34,2.45l0.88,0.12
		c3.74,0.52,7.43,1.04,11.11,1.57c0,0,4.36,0.63,5.73,0.84v129.83l3.63,2.37c9.52,6.2,18.25,12.72,25.96,19.38
		c16.37,14.13,28.13,28.8,35.17,43.83c-14.28-10.31-32.21-20.06-53.64-29.14c-17.67-7.49-37.78-14.52-59.75-20.89
		c-8.7-2.52-17.73-4.96-26.93-7.26v-92.77c8.47,2.15,17,4.43,25.47,6.82v55.94l23.06,6.94v-85.05c0,0-36.73-7.46-48.53-10.1v-121
		c29.75-2.21,58.12-4.76,84.42-7.58C865.23,5.14,885.37,2.65,904,0c-13.15,7.74-32.54,20.37-61.13,29.1l-2.21,0.67l-5.69,1.72v55.78
		c-8.76-0.79-17.8-1.56-27.04-2.31V37.01l-35.25,5L784.88,52.78z"/>
	<path class="st0" d="M391.16,67.41v40.57l24.31-4.44v27.36l-24.31,4.9v59.02l23.06-1.37v-38.72l26.25-4.43v70.52
		c-25.4,0.18-50.74,0.96-75.57,2.33V24.76c24.92,0.45,50.26,0.71,75.57,0.77v51.63l-26.25,3.52v-24.4l-38.04-1.73"/>
	<path class="st0" d="M167.65,16.65c24.32,1.63,49.67,3.06,75.57,4.25v214.23c-8.86,1.29-17.64,2.67-26.25,4.12V122.04l-9.34,1.59
		c-2.37,0.4-4.74,0.82-7.1,1.23l-6.61,1.17v117.38c-8.94,1.71-17.72,3.52-26.25,5.41V16.65z M193.91,57v44.49l8.69-0.75
		c2.34-0.2,4.68-0.4,7.03-0.6l7.34-0.61V46.8c0,0-36.59-3.16-37.75-3.26L193.91,57z"/>
	<path class="st0" d="M637.72,232c-24.45-3.09-49.8-5.57-75.57-7.39V24.29c25.56-0.59,50.91-1.39,75.57-2.39V232z M588.41,67.24v134
		l7.62,0.36c2.35,0.11,4.7,0.22,7.04,0.34l8.4,0.42V51.82l-8.4,0.42c-1.6,0.08-21.8,1.25-29.75,1.33L588.41,67.24z"/>
</g>
<g id="Layer_2">
	<g>
		<path class="st0" d="M205.83,267.37c3.26-3.61,8.21-5.46,13.02-5.35c18.62,0.01,37.24-0.02,55.86,0.01
			c0.02,4.63,0.02,9.25-0.01,13.88c-17.55,0.03-35.1,0-52.65,0.02c-1.61-0.05-3.23,0.9-3.96,2.34c-0.48,0.88-0.62,1.91-0.64,2.9
			c0,5.97,0,11.94,0,17.91c0.03,1.12,0.2,2.29,0.84,3.24c0.84,1.35,2.46,2.08,4.02,2.04c17.69,0.01,35.38-0.01,53.07,0.01
			c0.06,4.63,0.02,9.25,0.03,13.88c-18.85,0-37.71,0.01-56.56,0c-3.44,0.06-6.91-0.82-9.83-2.66c-4.7-2.86-7.38-8.38-7.23-13.82
			c0-7.83-0.01-15.66,0-23.49C201.77,274.31,203.14,270.3,205.83,267.37z"/>
		<g>
			<path class="st0" d="M307.46,262.16c1.02-0.15,2.06-0.11,3.09-0.13c14.86,0,29.72,0,44.58,0c3.37-0.09,6.78,0.8,9.66,2.56
				c4.62,2.76,7.37,8.1,7.33,13.43c0.02,8,0.01,16,0.01,23.99c0.03,4-1.35,8.07-4.11,11.02c-3.18,3.49-7.96,5.27-12.63,5.22
				c-14.59,0.02-29.18,0-43.77,0.01c-1.78-0.02-3.59,0.03-5.35-0.35c-4.05-0.78-7.89-3.02-10.25-6.44
				c-2.01-2.81-2.89-6.29-2.91-9.71c0-6.59,0-13.17,0-19.76c0.02-2.57-0.14-5.18,0.49-7.7c0.81-3.63,2.97-6.96,6.02-9.1
				C301.92,263.53,304.66,262.58,307.46,262.16z M312.77,275.97c-2.26,0.25-4,2.43-3.93,4.68c0,6.32,0,12.65,0,18.97
				c-0.01,1.66,0.85,3.36,2.34,4.15c1.01,0.6,2.22,0.62,3.36,0.59c12.46-0.02,24.92,0.02,37.39-0.02c2.36,0,4.49-2.08,4.44-4.46
				c0.02-6.41,0.01-12.82,0.01-19.23c0.08-1.78-0.95-3.57-2.6-4.28c-1.14-0.63-2.48-0.39-3.72-0.44
				C337.63,275.96,325.2,275.89,312.77,275.97z"/>
		</g>
		<path class="st0" d="M392.77,262.05c5.89-0.04,11.78-0.02,17.67-0.01c7.92,12.8,15.77,25.65,23.67,38.46
			c0.73-0.89,1.27-1.91,1.88-2.88c7.29-11.86,14.59-23.72,21.88-35.58c5.9-0.02,11.8-0.01,17.69,0c0,18.73,0,37.47,0,56.21
			c-5.24,0.01-10.48,0.02-15.73,0c-0.03-10.84,0.01-21.68-0.02-32.52c-6.81,10.81-13.47,21.71-20.26,32.53
			c-3.6,0.01-7.19,0.02-10.79-0.01c-6.77-10.83-13.45-21.71-20.25-32.52c-0.05,10.84,0.01,21.68-0.03,32.53
			c-5.24,0.02-10.48,0.03-15.71-0.01C392.77,299.5,392.77,280.78,392.77,262.05z"/>
		<path class="st0" d="M497.64,262.04c5.24-0.02,10.47-0.01,15.71-0.01c0.01,18.73,0,37.47,0.01,56.2c-1.66,0.3-3.33-0.03-5,0.02
			c-3.57-0.01-7.15,0.02-10.72-0.01C497.62,299.5,497.62,280.77,497.64,262.04z"/>
		<path class="st0" d="M538.26,267.18c3.28-3.51,8.19-5.28,12.94-5.15c18.58,0,37.16-0.01,55.74,0c-0.01,4.63,0.02,9.26-0.02,13.89
			c-17.6,0.03-35.21-0.01-52.81,0.02c-2.45-0.01-4.42,2.31-4.37,4.7c0,6.42-0.02,12.83,0.01,19.25c0.07,2.42,2.18,4.55,4.63,4.46
			c15.22,0.01,30.44,0,45.67,0c2.54,0.05,5.09-0.1,7.63,0.09c0.01,4.6,0,9.2,0.01,13.8c-2.99,0.06-5.99-0.09-8.97,0.1
			c-2.13-0.13-4.27-0.13-6.41-0.05c-13.88-0.11-27.78,0-41.66-0.06c-4.09,0.01-8.21-1.4-11.31-4.1c-2.9-2.52-4.74-6.19-5.14-10
			c-0.23-1.32-0.15-2.66-0.16-4c0-7.3,0-14.6,0-21.91C534.06,274.21,535.45,270.13,538.26,267.18z"/>
		<path class="st0" d="M628.99,265.68c3.34-2.73,7.8-3.72,12.04-3.65c18.22-0.01,36.44-0.01,54.66,0
			c-0.01,4.63,0.02,9.26-0.02,13.89c-17.95,0.03-35.9,0-53.86,0.02c-0.9-0.11-1.82,0.63-1.77,1.55c-0.03,1.48-0.05,2.97,0.01,4.45
			c0.05,0.97,1.14,1.51,2.01,1.47c13.8,0,27.61-0.01,41.41,0.01c4.4-0.04,9.07,1.02,12.42,4.03c2.65,2.32,4.06,5.81,4.27,9.28
			c0.09,2.38,0.04,4.77,0.04,7.16c0.01,3.38-1.03,6.86-3.32,9.4c-3.01,3.36-7.64,4.78-12.04,4.93c-3.84,0.08-7.68,0.02-11.52,0.04
			c-1.6-0.06-3.21,0.22-4.81,0.01c-7.48,0-14.96-0.06-22.42,0.04c-0.89-0.1-1.79-0.03-2.67,0.04c-5.56-0.2-11.12-0.02-16.68-0.11
			c0-4.58,0-9.17,0-13.75c0.92-0.18,1.86-0.12,2.8-0.13c17.62,0,35.24,0,52.87,0c0.61,0.01,1.3-0.11,1.71-0.62
			c0.41-0.47,0.33-1.13,0.36-1.7c-0.02-1.24,0.03-2.47-0.03-3.71c-0.03-0.9-0.95-1.54-1.79-1.51c-13.96-0.03-27.93,0.01-41.89-0.02
			c-4.78-0.05-9.96-1.32-13.22-5.05c-2.29-2.57-3.28-6.08-3.25-9.48c0.02-2.46-0.07-4.92,0.07-7.37
			C624.66,271.39,626.22,267.92,628.99,265.68z"/>
	</g>
</g>
</svg>
